# xmcd
#
# Track frame offsets:
# 150
# 15341
# 31870
# 50025
# 67786
# 92667
# 112872
# 129450
# 147364
# 163153
# 178354
# 195845
# 215068
#
# Disc length: 3081 seconds
#
#
# Revision: 1
# Processed by: cddbd v1.4PL0 Copyright (c) Steve Scherf et al.
# Submitted via: FreeRIP 2.00 
#
DISCID=ae0c070d
DTITLE=Leann Rimes - Twisted Angel
DYEAR=2002
DGENRE=Country
TTITLE0=Twisted Angel
TTITLE1=You Made Me Find Myself
TTITLE2=Love Is An Army
TTITLE3=No Way Out
TTITLE4=Review My Kisses
TTITLE5=Sign Of Life
TTITLE6=Tic Toc
TTITLE7=Suddenly
TTITLE8=Damn
TTITLE9=Trouble With Goodbye
TTITLE10=The Safest Place
TTITLE11=Wound Up
TTITLE12=Life Goes On
EXTD=ripped by puttee
EXTT0=
EXTT1=
EXTT2=
EXTT3=
EXTT4=
EXTT5=
EXTT6=
EXTT7=
EXTT8=
EXTT9=
EXTT10=
EXTT11=
EXTT12=
PLAYORDER=
